<?xml version="1.0" standalone="no" ?>
<!DOCTYPE svg PUBLIC "-//W3C//DTD SVG 20010904//EN"
  "http://www.w3.org/TR/2001/REC-SVG-20010904/DTD/svg10.dtd">
<svg
  version="1.0"
  xmlns="http://www.w3.org/2000/svg"
  viewBox="0 0 720.000000 720.000000"
  preserveAspectRatio="xMidYMid meet"
>

<g
    transform="translate(0.000000,720.000000) scale(0.100000,-0.100000)"
    fill="#000000"
    stroke="none"
  >
<path
      d="M5185 5614 c-300 -44 -523 -143 -747 -331 -232 -196 -385 -468 -428
-761 l-12 -82 -373 0 -373 0 -40 68 c-146 244 -397 427 -702 509 -117 31 -367
43 -501 24 -453 -67 -834 -396 -945 -817 -23 -86 -27 -120 -27 -254 -1 -174
16 -267 75 -408 117 -282 410 -541 714 -631 50 -15 226 -51 248 -51 0 0 0
-236 -2 -525 l-2 -525 140 0 140 0 0 -190 0 -190 1080 0 1080 0 0 190 0 190
225 0 225 0 0 120 0 120 55 0 55 0 0 -75 0 -75 215 0 215 0 0 393 c0 215 -3
443 -7 505 l-6 112 -209 0 -208 0 0 -90 0 -90 -55 0 -55 0 0 180 c0 99 4 180
8 180 5 0 51 -9 103 -20 198 -43 472 -37 675 15 459 116 843 485 961 921 25
93 27 112 27 314 0 202 -2 221 -27 314 -125 462 -540 838 -1038 942 -72 15
-417 28 -484 18z m620 -308 c189 -76 422 -267 493 -402 18 -34 32 -66 32 -71
0 -12 -377 -195 -447 -218 -48 -15 -57 -15 -115 0 -112 28 -200 93 -242 177
-25 49 -26 60 -26 207 0 86 3 200 7 253 l6 97 41 3 c75 6 166 -11 251 -46z
m-615 35 c25 -7 25 -10 47 -206 28 -259 28 -288 -1 -350 -28 -60 -119 -149
-181 -176 -90 -40 -141 -31 -426 72 -140 50 -264 97 -276 103 l-22 11 24 53
c101 217 377 434 620 487 65 14 174 17 215 6z m-2690 -546 c145 -18 394 -189
473 -324 l18 -31 -340 0 -341 0 0 113 c0 61 3 142 6 179 l7 67 41 3 c42 4 58
3 136 -7z m-406 -57 c3 -35 8 -116 11 -180 5 -102 4 -118 -10 -118 -12 0 -15
-12 -15 -56 0 -47 -5 -63 -31 -99 -56 -79 -151 -123 -236 -111 -42 5 -430 149
-446 165 -12 12 34 108 86 178 46 62 136 143 211 191 97 61 204 88 353 91 l71
1 6 -62z m3184 -223 c25 -21 34 -24 57 -15 14 5 45 10 68 10 125 -1 205 -113
162 -225 -26 -68 -72 -99 -156 -103 -110 -7 -169 38 -184 139 -5 31 -2 57 8
81 15 35 14 37 -14 64 l-29 28 22 23 c27 29 30 29 66 -2z m1202 -27 c66 -151
16 -477 -106 -696 -40 -71 -133 -172 -158 -172 -22 0 -304 266 -337 319 -39
60 -62 134 -63 200 -1 48 4 63 32 104 40 57 157 156 227 193 37 19 281 86 376
103 4 0 17 -23 29 -51z m-1956 -56 c-141 -1 -259 0 -262 2 -2 3 -2 20 2 38 l6
34 256 -36 256 -35 -258 -3z m530 -255 c-3 -10 -25 -59 -50 -110 l-44 -92 0
121 0 121 50 -11 c42 -8 49 -13 44 -29z m-3316 -174 c62 -46 92 -127 92 -246
-1 -102 -23 -143 -148 -287 -63 -72 -119 -130 -125 -130 -6 0 -39 29 -73 64
-72 74 -153 226 -180 341 -17 69 -25 299 -11 321 4 7 80 0 212 -17 161 -21
213 -31 233 -46z m3787 -63 c26 -13 69 -46 96 -74 66 -68 311 -447 298 -462
-18 -22 -107 -64 -184 -86 -73 -21 -100 -23 -295 -23 -229 0 -313 13 -432 64
l-48 20 0 90 0 91 82 132 c45 73 93 148 106 166 75 100 258 140 377 82z
m-3449 -846 c-12 -30 -242 44 -269 86 -12 20 178 335 231 381 l37 33 3 -244
c1 -135 0 -250 -2 -256z"
    />
<path
      d="M6053 5103 c16 -17 28 -35 27 -40 -1 -4 13 -19 31 -33 18 -14 29 -18
24 -10 -5 9 -4 12 1 7 5 -5 9 -16 9 -24 0 -9 6 -18 14 -21 9 -3 11 0 6 8 -5 9
-4 11 4 6 6 -4 9 -11 6 -16 -3 -5 10 -30 30 -55 33 -43 39 -58 36 -78 -2 -12
29 -21 40 -10 22 22 -106 182 -211 262 l-45 35 28 -31z m68 -60 c13 -16 12
-17 -3 -4 -10 7 -18 15 -18 17 0 8 8 3 21 -13z"
    />
<path
      d="M5171 5274 c2 -79 46 -455 50 -427 6 36 -34 440 -45 450 -3 3 -6 -7
-5 -23z"
    />
<path
      d="M4560 5061 c-36 -32 -80 -80 -99 -107 l-33 -49 43 50 c23 28 70 76
103 107 79 75 70 74 -14 -1z"
    />
<path
      d="M4410 4880 c-6 -11 -8 -20 -6 -20 3 0 10 9 16 20 6 11 8 20 6 20 -3
0 -10 -9 -16 -20z"
    />
<path
      d="M2350 4615 c0 -184 18 -194 22 -12 3 138 2 157 -13 157 -5 0 -9 -65
-9 -145z"
    />
<path
      d="M1545 4558 c-47 -47 -94 -105 -109 -135 -31 -62 -32 -73 -8 -73 12 0
28 21 49 63 17 34 54 88 83 120 28 31 48 57 44 57 -4 0 3 11 16 25 13 14 20
25 15 25 -4 0 -45 -37 -90 -82z"
    />
<path
      d="M5254 4471 c21 -23 26 -26 26 -11 0 5 -10 15 -22 21 -23 12 -23 12
-4 -10z"
    />
<path
      d="M5500 4417 c18 -31 22 -49 18 -98 -4 -57 -4 -59 10 -33 21 41 10 110
-23 143 l-27 26 22 -38z"
    />
<path
      d="M6416 4482 c-3 -5 2 -31 10 -58 24 -75 13 -271 -20 -394 -34 -120
-101 -260 -158 -325 -30 -35 -36 -45 -18 -34 85 54 188 265 225 462 18 93 19
255 2 311 -12 39 -30 56 -41 38z"
    />
<path
      d="M1323 3914 c6 -144 23 -210 82 -331 40 -82 140 -212 152 -199 3 2
-14 28 -37 57 -100 126 -150 270 -159 454 -5 117 -8 130 -25 133 -18 4 -19 -2
-13 -114z"
    />
<path
      d="M5577 3842 c56 -55 286 -409 279 -428 -3 -8 0 -11 10 -7 7 3 14 7 14
9 0 19 -260 400 -295 433 -61 56 -67 52 -8 -7z"
    />
<path
      d="M1951 3375 c-47 -77 -91 -150 -99 -162 -12 -20 -11 -23 17 -37 40
-21 48 -20 22 2 l-22 17 44 70 c24 39 46 77 50 85 4 8 16 29 27 45 11 17 23
37 27 45 3 8 11 18 16 21 5 4 7 17 5 30 -2 19 -21 -7 -87 -116z"
    />
<path d="M5024 2947 c-3 -8 -4 -49 -2 -93 l3 -79 5 93 c5 92 4 104 -6 79z" />
<path d="M5023 1980 c0 -36 2 -50 4 -32 2 17 2 47 0 65 -2 17 -4 3 -4 -33z" />
</g>
</svg>
